<svg width="128" height="120" viewBox="0 0 128 120" fill="none" xmlns="http://www.w3.org/2000/svg">
<path d="M56.7664 114.605H25.009L22.1861 91.14L2.77877 77.202C1.89662 73.1441 1.54376 68.9098 1.54376 64.6755C1.54376 30.0952 29.5961 2.21924 64 2.21924C98.5803 2.21924 126.456 30.2716 126.456 64.6755C126.456 68.9098 126.103 73.1441 125.221 77.202L105.99 91.14L102.991 114.605H71.2336L69.4693 116.017C67.8815 117.252 65.9407 117.781 64 117.781C62.0593 117.781 60.1185 117.075 58.5307 116.017L56.7664 114.605Z" stroke="white" stroke-width="3.08753" stroke-miterlimit="40"/>
<path d="M56.7664 114.605H25.009L22.1861 91.14L2.77877 77.202C1.89662 73.1441 1.54376 68.9098 1.54376 64.6755C1.54376 30.0952 29.5961 2.21924 64 2.21924C98.5803 2.21924 126.456 30.2716 126.456 64.6755C126.456 68.9098 126.103 73.1441 125.221 77.202L105.99 91.14L102.991 114.605H71.2336L69.4693 116.017C67.8815 117.252 65.9407 117.781 64 117.781C62.0593 117.781 60.1185 117.075 58.5307 116.017L56.7664 114.605Z" fill="#FBCE07"/>
<path fill-rule="evenodd" clip-rule="evenodd" d="M56.7664 114.605H25.009L22.1861 91.14L2.77877 77.202C1.89662 73.1441 1.54376 68.9098 1.54376 64.6755C1.54376 30.0952 29.5961 2.21924 64 2.21924C98.4039 2.21924 126.456 30.2716 126.456 64.6755C126.456 68.9098 126.103 73.1441 125.221 77.202L105.99 91.14L102.991 114.605H71.2336L69.4693 116.017C67.8815 117.252 65.9407 117.781 64 117.781C62.0593 117.781 60.1185 117.075 58.5307 116.017L56.7664 114.605ZM57.825 103.667H34.7126L32.419 84.9649L13.3646 71.2034C12.8353 69.0862 12.4824 66.7926 12.4824 64.4991C12.4824 60.794 13.1881 57.089 14.776 53.7368L48.4742 87.7878L15.8346 47.3853C17.0696 42.0924 19.8925 37.5052 23.9504 33.8002L53.2378 84.4356L27.3026 29.213C30.6547 24.8023 35.4183 21.4501 40.7112 19.8622L58.7071 82.6713L45.6513 17.2158C49.7092 14.9222 54.1199 13.8636 58.7071 13.8636C59.5893 13.8636 60.6478 13.8636 61.53 14.04L64.1764 81.9656L66.8229 14.04C67.705 13.8636 68.7636 13.8636 69.6458 13.8636C74.2329 13.8636 78.6437 15.0986 82.7016 17.2158L69.6458 82.6713L87.6416 19.6858C92.9345 21.2737 97.6981 24.6259 101.05 29.0366L74.9387 84.4356L104.226 33.8002C108.284 37.3288 111.107 42.0924 112.342 47.3853L79.7023 87.7878L113.4 53.7368C114.988 57.089 115.694 60.794 115.694 64.4991C115.694 66.7926 115.341 68.9098 114.812 71.2034L95.7574 84.9649L93.4638 103.667H70.5279L66.9993 106.137C66.1172 106.842 65.0586 107.019 64 107.019C62.9414 107.019 61.8828 106.666 61.0007 106.137L57.825 103.667Z" fill="#DD1D21"/>
</svg>
