<svg width="100" height="100" viewBox="0 0 100 100" fill="none" xmlns="http://www.w3.org/2000/svg">
<circle cx="50" cy="50" r="50" fill="#3A4A93"/>
<g clip-path="url(#clip0_241_192)">
<path d="M46.0441 79.8622H28.6768L27.133 67.0297L16.5196 59.4073C16.0372 57.1882 15.8442 54.8725 15.8442 52.5569C15.8442 33.6458 31.1854 18.4011 50 18.4011C68.9111 18.4011 84.1558 33.7423 84.1558 52.5569C84.1558 54.8725 83.9628 57.1882 83.4804 59.4073L72.9635 67.0297L71.3232 79.8622H53.9559L52.991 80.6341C52.1227 81.3095 51.0613 81.5989 50 81.5989C48.9387 81.5989 47.8773 81.213 47.009 80.6341L46.0441 79.8622Z" stroke="white" stroke-width="3.08753" stroke-miterlimit="40"/>
<path d="M46.0441 79.8622H28.6768L27.133 67.0297L16.5196 59.4073C16.0372 57.1882 15.8442 54.8725 15.8442 52.5569C15.8442 33.6458 31.1854 18.4011 50 18.4011C68.9111 18.4011 84.1558 33.7423 84.1558 52.5569C84.1558 54.8725 83.9628 57.1882 83.4804 59.4073L72.9635 67.0297L71.3232 79.8622H53.9559L52.991 80.6341C52.1227 81.3095 51.0613 81.5989 50 81.5989C48.9387 81.5989 47.8773 81.213 47.009 80.6341L46.0441 79.8622Z" fill="#FBCE07"/>
<path fill-rule="evenodd" clip-rule="evenodd" d="M46.0441 79.8622H28.6768L27.133 67.0297L16.5196 59.4073C16.0372 57.1882 15.8442 54.8725 15.8442 52.5569C15.8442 33.6458 31.1854 18.4011 50 18.4011C68.8146 18.4011 84.1558 33.7423 84.1558 52.5569C84.1558 54.8725 83.9628 57.1882 83.4804 59.4073L72.9635 67.0297L71.3232 79.8622H53.9559L52.991 80.6341C52.1227 81.3095 51.0613 81.5989 50 81.5989C48.9387 81.5989 47.8773 81.213 47.009 80.6341L46.0441 79.8622ZM46.623 73.8801H33.9835L32.7291 63.6527L22.3087 56.1268C22.0193 54.969 21.8263 53.7147 21.8263 52.4604C21.8263 50.4342 22.2123 48.408 23.0806 46.5748L41.5093 65.1964L23.6595 43.1013C24.3349 40.2068 25.8787 37.6982 28.0979 35.672L44.1144 63.3632L29.9311 33.1634C31.7643 30.7512 34.3694 28.918 37.264 28.0496L47.1054 62.3984L39.9655 26.6024C42.1847 25.3481 44.5968 24.7691 47.1054 24.7691C47.5879 24.7691 48.1668 24.7691 48.6492 24.8656L50.0965 62.0124L51.5438 24.8656C52.0262 24.7691 52.6051 24.7691 53.0875 24.7691C55.5961 24.7691 58.0083 25.4445 60.2274 26.6024L53.0875 62.3984L62.929 27.9532C65.8236 28.8215 68.4287 30.6547 70.2619 33.0669L55.9821 63.3632L71.9986 35.672C74.2178 37.6017 75.7615 40.2068 76.4369 43.1013L58.5872 65.1964L77.0158 46.5748C77.8842 48.408 78.2701 50.4342 78.2701 52.4604C78.2701 53.7147 78.0772 54.8725 77.7877 56.1268L67.3673 63.6527L66.113 73.8801H53.5699L51.6402 75.2309C51.1578 75.6168 50.5789 75.7133 50 75.7133C49.4211 75.7133 48.8422 75.5204 48.3597 75.2309L46.623 73.8801Z" fill="#DD1D21"/>
</g>
<defs>
<clipPath id="clip0_241_192">
<rect width="70" height="70" fill="white" transform="translate(15 15)"/>
</clipPath>
</defs>
</svg>
